{
	"patcher" : 	{
		"fileversion" : 1,
		"rect" : [ 103.0, 179.0, 403.0, 300.0 ],
		"bglocked" : 0,
		"defrect" : [ 103.0, 179.0, 403.0, 300.0 ],
		"openrect" : [ 0.0, 0.0, 0.0, 0.0 ],
		"openinpresentation" : 0,
		"default_fontsize" : 12.0,
		"default_fontface" : 0,
		"default_fontname" : "Arial",
		"gridonopen" : 0,
		"gridsize" : [ 15.0, 15.0 ],
		"gridsnaponopen" : 0,
		"toolbarvisible" : 1,
		"boxanimatetime" : 200,
		"imprint" : 0,
		"metadata" : [  ],
		"boxes" : [ 			{
				"box" : 				{
					"maxclass" : "inlet",
					"outlettype" : [ "" ],
					"patching_rect" : [ 347.0, 149.0, 25.0, 25.0 ],
					"numinlets" : 0,
					"id" : "obj-106",
					"numoutlets" : 1,
					"comment" : "phase"
				}

			}
, 			{
				"box" : 				{
					"maxclass" : "inlet",
					"outlettype" : [ "" ],
					"patching_rect" : [ 227.0, 149.0, 25.0, 25.0 ],
					"numinlets" : 0,
					"id" : "obj-105",
					"numoutlets" : 1,
					"comment" : "cyc 2 gain"
				}

			}
, 			{
				"box" : 				{
					"maxclass" : "inlet",
					"outlettype" : [ "" ],
					"patching_rect" : [ 92.0, 149.0, 25.0, 25.0 ],
					"numinlets" : 0,
					"id" : "obj-104",
					"numoutlets" : 1,
					"comment" : "cyc 1 gain"
				}

			}
, 			{
				"box" : 				{
					"maxclass" : "inlet",
					"outlettype" : [ "" ],
					"patching_rect" : [ 273.0, 70.0, 25.0, 25.0 ],
					"numinlets" : 0,
					"id" : "obj-103",
					"numoutlets" : 1,
					"comment" : "phase freq"
				}

			}
, 			{
				"box" : 				{
					"maxclass" : "inlet",
					"outlettype" : [ "" ],
					"patching_rect" : [ 212.0, 74.0, 25.0, 25.0 ],
					"numinlets" : 0,
					"id" : "obj-102",
					"numoutlets" : 1,
					"comment" : "cyc 2 amp"
				}

			}
, 			{
				"box" : 				{
					"maxclass" : "inlet",
					"outlettype" : [ "" ],
					"patching_rect" : [ 17.0, 74.0, 25.0, 25.0 ],
					"numinlets" : 0,
					"id" : "obj-101",
					"numoutlets" : 1,
					"comment" : "cyc 1 amp"
				}

			}
, 			{
				"box" : 				{
					"maxclass" : "inlet",
					"outlettype" : [ "" ],
					"patching_rect" : [ 212.0, 14.0, 25.0, 25.0 ],
					"numinlets" : 0,
					"id" : "obj-99",
					"numoutlets" : 1,
					"comment" : "cyc 2 pha"
				}

			}
, 			{
				"box" : 				{
					"maxclass" : "inlet",
					"outlettype" : [ "" ],
					"patching_rect" : [ 152.0, 14.0, 25.0, 25.0 ],
					"numinlets" : 0,
					"id" : "obj-100",
					"numoutlets" : 1,
					"comment" : "cyc 2 freq"
				}

			}
, 			{
				"box" : 				{
					"maxclass" : "inlet",
					"hint" : "",
					"outlettype" : [ "" ],
					"patching_rect" : [ 92.0, 14.0, 25.0, 25.0 ],
					"numinlets" : 0,
					"id" : "obj-98",
					"numoutlets" : 1,
					"comment" : "cyc 1 pha"
				}

			}
, 			{
				"box" : 				{
					"maxclass" : "inlet",
					"hint" : "",
					"outlettype" : [ "" ],
					"patching_rect" : [ 32.0, 14.0, 25.0, 25.0 ],
					"numinlets" : 0,
					"id" : "obj-97",
					"numoutlets" : 1,
					"comment" : "cyc 1 freq"
				}

			}
, 			{
				"box" : 				{
					"maxclass" : "outlet",
					"hint" : "",
					"patching_rect" : [ 47.0, 239.0, 25.0, 25.0 ],
					"numinlets" : 1,
					"id" : "obj-96",
					"numoutlets" : 0,
					"comment" : "sig out"
				}

			}
, 			{
				"box" : 				{
					"maxclass" : "flonum",
					"outlettype" : [ "float", "bang" ],
					"presentation_rect" : [ 75.0, 75.0, 50.0, 20.0 ],
					"fontsize" : 11.595187,
					"patching_rect" : [ 288.0, 145.0, 50.0, 20.0 ],
					"numinlets" : 1,
					"id" : "obj-66",
					"fontname" : "Arial",
					"triscale" : 0.9,
					"numoutlets" : 2
				}

			}
, 			{
				"box" : 				{
					"maxclass" : "flonum",
					"outlettype" : [ "float", "bang" ],
					"presentation_rect" : [ 75.0, 75.0, 50.0, 20.0 ],
					"fontsize" : 11.595187,
					"patching_rect" : [ 92.0, 44.0, 50.0, 20.0 ],
					"numinlets" : 1,
					"id" : "obj-65",
					"fontname" : "Arial",
					"triscale" : 0.9,
					"numoutlets" : 2
				}

			}
, 			{
				"box" : 				{
					"maxclass" : "flonum",
					"outlettype" : [ "float", "bang" ],
					"presentation_rect" : [ 75.0, 75.0, 50.0, 20.0 ],
					"fontsize" : 11.595187,
					"patching_rect" : [ 212.0, 44.0, 50.0, 20.0 ],
					"numinlets" : 1,
					"id" : "obj-64",
					"fontname" : "Arial",
					"triscale" : 0.9,
					"numoutlets" : 2
				}

			}
, 			{
				"box" : 				{
					"maxclass" : "flonum",
					"outlettype" : [ "float", "bang" ],
					"presentation_rect" : [ 60.0, 60.0, 50.0, 20.0 ],
					"fontsize" : 11.595187,
					"patching_rect" : [ 164.0, 108.0, 50.0, 20.0 ],
					"numinlets" : 1,
					"id" : "obj-13",
					"fontname" : "Arial",
					"triscale" : 0.9,
					"numoutlets" : 2
				}

			}
, 			{
				"box" : 				{
					"maxclass" : "flonum",
					"outlettype" : [ "float", "bang" ],
					"presentation_rect" : [ 60.0, 60.0, 50.0, 20.0 ],
					"fontsize" : 11.595187,
					"patching_rect" : [ 166.0, 155.0, 50.0, 20.0 ],
					"numinlets" : 1,
					"id" : "obj-27",
					"fontname" : "Arial",
					"triscale" : 0.9,
					"numoutlets" : 2
				}

			}
, 			{
				"box" : 				{
					"maxclass" : "flonum",
					"outlettype" : [ "float", "bang" ],
					"presentation_rect" : [ 60.0, 60.0, 50.0, 20.0 ],
					"fontsize" : 11.595187,
					"patching_rect" : [ 152.0, 44.0, 50.0, 20.0 ],
					"numinlets" : 1,
					"id" : "obj-28",
					"fontname" : "Arial",
					"triscale" : 0.9,
					"numoutlets" : 2
				}

			}
, 			{
				"box" : 				{
					"maxclass" : "newobj",
					"text" : "+~ 0.5",
					"outlettype" : [ "signal" ],
					"fontsize" : 11.595187,
					"patching_rect" : [ 144.0, 180.0, 41.0, 20.0 ],
					"numinlets" : 2,
					"id" : "obj-29",
					"fontname" : "Arial",
					"numoutlets" : 1
				}

			}
, 			{
				"box" : 				{
					"maxclass" : "newobj",
					"text" : "*~ 0.4",
					"outlettype" : [ "signal" ],
					"fontsize" : 11.595187,
					"patching_rect" : [ 144.0, 132.0, 39.0, 20.0 ],
					"numinlets" : 2,
					"id" : "obj-36",
					"fontname" : "Arial",
					"numoutlets" : 1
				}

			}
, 			{
				"box" : 				{
					"maxclass" : "newobj",
					"text" : "cycle~ 0.07",
					"outlettype" : [ "signal" ],
					"fontsize" : 11.595187,
					"patching_rect" : [ 137.0, 74.0, 68.0, 20.0 ],
					"numinlets" : 2,
					"id" : "obj-37",
					"fontname" : "Arial",
					"numoutlets" : 1
				}

			}
, 			{
				"box" : 				{
					"maxclass" : "flonum",
					"outlettype" : [ "float", "bang" ],
					"presentation_rect" : [ 60.0, 60.0, 50.0, 20.0 ],
					"fontsize" : 11.595187,
					"patching_rect" : [ 71.0, 108.0, 50.0, 20.0 ],
					"numinlets" : 1,
					"id" : "obj-39",
					"fontname" : "Arial",
					"triscale" : 0.9,
					"numoutlets" : 2
				}

			}
, 			{
				"box" : 				{
					"maxclass" : "flonum",
					"outlettype" : [ "float", "bang" ],
					"presentation_rect" : [ 60.0, 60.0, 50.0, 20.0 ],
					"fontsize" : 11.595187,
					"patching_rect" : [ 32.0, 44.0, 50.0, 20.0 ],
					"numinlets" : 1,
					"id" : "obj-40",
					"fontname" : "Arial",
					"triscale" : 0.9,
					"numoutlets" : 2
				}

			}
, 			{
				"box" : 				{
					"maxclass" : "newobj",
					"text" : "+~ 1000",
					"outlettype" : [ "signal" ],
					"fontsize" : 11.595187,
					"patching_rect" : [ 47.0, 180.0, 51.0, 20.0 ],
					"numinlets" : 2,
					"id" : "obj-42",
					"fontname" : "Arial",
					"numoutlets" : 1
				}

			}
, 			{
				"box" : 				{
					"maxclass" : "newobj",
					"text" : "*~ 200",
					"outlettype" : [ "signal" ],
					"fontsize" : 11.595187,
					"patching_rect" : [ 47.0, 132.0, 43.0, 20.0 ],
					"numinlets" : 2,
					"id" : "obj-43",
					"fontname" : "Arial",
					"numoutlets" : 1
				}

			}
, 			{
				"box" : 				{
					"maxclass" : "newobj",
					"text" : "cycle~ 0.04",
					"outlettype" : [ "signal" ],
					"fontsize" : 11.595187,
					"patching_rect" : [ 47.0, 74.0, 68.0, 20.0 ],
					"numinlets" : 2,
					"id" : "obj-44",
					"fontname" : "Arial",
					"numoutlets" : 1
				}

			}
, 			{
				"box" : 				{
					"maxclass" : "newobj",
					"text" : "phasor~ 321",
					"outlettype" : [ "signal" ],
					"fontsize" : 11.595187,
					"patching_rect" : [ 257.0, 176.0, 73.0, 20.0 ],
					"numinlets" : 2,
					"id" : "obj-46",
					"fontname" : "Arial",
					"numoutlets" : 1
				}

			}
, 			{
				"box" : 				{
					"maxclass" : "flonum",
					"outlettype" : [ "float", "bang" ],
					"presentation_rect" : [ 60.0, 60.0, 50.0, 20.0 ],
					"fontsize" : 11.595187,
					"patching_rect" : [ 257.0, 104.0, 50.0, 20.0 ],
					"numinlets" : 1,
					"id" : "obj-47",
					"fontname" : "Arial",
					"triscale" : 0.9,
					"numoutlets" : 2
				}

			}
, 			{
				"box" : 				{
					"maxclass" : "newobj",
					"text" : "rect~",
					"outlettype" : [ "signal" ],
					"fontsize" : 11.595187,
					"patching_rect" : [ 47.0, 208.0, 225.0, 20.0 ],
					"numinlets" : 3,
					"id" : "obj-49",
					"fontname" : "Arial",
					"numoutlets" : 1
				}

			}
 ],
		"lines" : [ 			{
				"patchline" : 				{
					"source" : [ "obj-46", 0 ],
					"destination" : [ "obj-49", 2 ],
					"hidden" : 0,
					"midpoints" : [  ]
				}

			}
, 			{
				"patchline" : 				{
					"source" : [ "obj-47", 0 ],
					"destination" : [ "obj-46", 0 ],
					"hidden" : 0,
					"midpoints" : [  ]
				}

			}
, 			{
				"patchline" : 				{
					"source" : [ "obj-13", 0 ],
					"destination" : [ "obj-36", 1 ],
					"hidden" : 0,
					"midpoints" : [  ]
				}

			}
, 			{
				"patchline" : 				{
					"source" : [ "obj-27", 0 ],
					"destination" : [ "obj-29", 1 ],
					"hidden" : 0,
					"midpoints" : [  ]
				}

			}
, 			{
				"patchline" : 				{
					"source" : [ "obj-29", 0 ],
					"destination" : [ "obj-49", 1 ],
					"hidden" : 0,
					"midpoints" : [  ]
				}

			}
, 			{
				"patchline" : 				{
					"source" : [ "obj-36", 0 ],
					"destination" : [ "obj-29", 0 ],
					"hidden" : 0,
					"midpoints" : [  ]
				}

			}
, 			{
				"patchline" : 				{
					"source" : [ "obj-37", 0 ],
					"destination" : [ "obj-36", 0 ],
					"hidden" : 0,
					"midpoints" : [  ]
				}

			}
, 			{
				"patchline" : 				{
					"source" : [ "obj-28", 0 ],
					"destination" : [ "obj-37", 0 ],
					"hidden" : 0,
					"midpoints" : [  ]
				}

			}
, 			{
				"patchline" : 				{
					"source" : [ "obj-39", 0 ],
					"destination" : [ "obj-43", 1 ],
					"hidden" : 0,
					"midpoints" : [  ]
				}

			}
, 			{
				"patchline" : 				{
					"source" : [ "obj-42", 0 ],
					"destination" : [ "obj-49", 0 ],
					"hidden" : 0,
					"midpoints" : [  ]
				}

			}
, 			{
				"patchline" : 				{
					"source" : [ "obj-43", 0 ],
					"destination" : [ "obj-42", 0 ],
					"hidden" : 0,
					"midpoints" : [  ]
				}

			}
, 			{
				"patchline" : 				{
					"source" : [ "obj-44", 0 ],
					"destination" : [ "obj-43", 0 ],
					"hidden" : 0,
					"midpoints" : [  ]
				}

			}
, 			{
				"patchline" : 				{
					"source" : [ "obj-40", 0 ],
					"destination" : [ "obj-44", 0 ],
					"hidden" : 0,
					"midpoints" : [  ]
				}

			}
, 			{
				"patchline" : 				{
					"source" : [ "obj-64", 0 ],
					"destination" : [ "obj-37", 1 ],
					"hidden" : 0,
					"midpoints" : [  ]
				}

			}
, 			{
				"patchline" : 				{
					"source" : [ "obj-65", 0 ],
					"destination" : [ "obj-44", 1 ],
					"hidden" : 0,
					"midpoints" : [  ]
				}

			}
, 			{
				"patchline" : 				{
					"source" : [ "obj-66", 0 ],
					"destination" : [ "obj-46", 1 ],
					"hidden" : 0,
					"midpoints" : [  ]
				}

			}
, 			{
				"patchline" : 				{
					"source" : [ "obj-49", 0 ],
					"destination" : [ "obj-96", 0 ],
					"hidden" : 0,
					"midpoints" : [  ]
				}

			}
, 			{
				"patchline" : 				{
					"source" : [ "obj-97", 0 ],
					"destination" : [ "obj-40", 0 ],
					"hidden" : 0,
					"midpoints" : [  ]
				}

			}
, 			{
				"patchline" : 				{
					"source" : [ "obj-98", 0 ],
					"destination" : [ "obj-65", 0 ],
					"hidden" : 0,
					"midpoints" : [  ]
				}

			}
, 			{
				"patchline" : 				{
					"source" : [ "obj-100", 0 ],
					"destination" : [ "obj-28", 0 ],
					"hidden" : 0,
					"midpoints" : [  ]
				}

			}
, 			{
				"patchline" : 				{
					"source" : [ "obj-99", 0 ],
					"destination" : [ "obj-64", 0 ],
					"hidden" : 0,
					"midpoints" : [  ]
				}

			}
, 			{
				"patchline" : 				{
					"source" : [ "obj-101", 0 ],
					"destination" : [ "obj-39", 0 ],
					"hidden" : 0,
					"midpoints" : [  ]
				}

			}
, 			{
				"patchline" : 				{
					"source" : [ "obj-102", 0 ],
					"destination" : [ "obj-13", 0 ],
					"hidden" : 0,
					"midpoints" : [  ]
				}

			}
, 			{
				"patchline" : 				{
					"source" : [ "obj-103", 0 ],
					"destination" : [ "obj-47", 0 ],
					"hidden" : 0,
					"midpoints" : [  ]
				}

			}
, 			{
				"patchline" : 				{
					"source" : [ "obj-104", 0 ],
					"destination" : [ "obj-42", 1 ],
					"hidden" : 0,
					"midpoints" : [  ]
				}

			}
, 			{
				"patchline" : 				{
					"source" : [ "obj-105", 0 ],
					"destination" : [ "obj-27", 0 ],
					"hidden" : 0,
					"midpoints" : [  ]
				}

			}
, 			{
				"patchline" : 				{
					"source" : [ "obj-106", 0 ],
					"destination" : [ "obj-66", 0 ],
					"hidden" : 0,
					"midpoints" : [  ]
				}

			}
 ]
	}

}
