{
	"patcher" : 	{
		"fileversion" : 1,
		"rect" : [ 27.0, 62.0, 416.0, 639.0 ],
		"bglocked" : 0,
		"defrect" : [ 27.0, 62.0, 416.0, 639.0 ],
		"openrect" : [ 0.0, 0.0, 0.0, 0.0 ],
		"openinpresentation" : 0,
		"default_fontsize" : 12.0,
		"default_fontface" : 0,
		"default_fontname" : "Arial",
		"gridonopen" : 0,
		"gridsize" : [ 15.0, 15.0 ],
		"gridsnaponopen" : 0,
		"toolbarvisible" : 1,
		"boxanimatetime" : 200,
		"imprint" : 0,
		"metadata" : [  ],
		"boxes" : [ 			{
				"box" : 				{
					"maxclass" : "inlet",
					"outlettype" : [ "" ],
					"patching_rect" : [ 312.0, 9.0, 25.0, 25.0 ],
					"hidden" : 1,
					"id" : "obj-27",
					"numinlets" : 0,
					"numoutlets" : 1,
					"comment" : "preset"
				}

			}
, 			{
				"box" : 				{
					"maxclass" : "comment",
					"text" : "Presets:",
					"fontname" : "Arial",
					"patching_rect" : [ 15.0, 474.0, 88.0, 20.0 ],
					"id" : "obj-28",
					"fontsize" : 12.0,
					"numinlets" : 1,
					"numoutlets" : 0
				}

			}
, 			{
				"box" : 				{
					"maxclass" : "inlet",
					"outlettype" : [ "" ],
					"patching_rect" : [ 100.0, 12.0, 25.0, 25.0 ],
					"hidden" : 1,
					"id" : "obj-13",
					"numinlets" : 0,
					"numoutlets" : 1,
					"comment" : "bang"
				}

			}
, 			{
				"box" : 				{
					"maxclass" : "comment",
					"text" : "Play back  signal:",
					"fontname" : "Arial",
					"patching_rect" : [ 15.0, 450.0, 79.0, 17.0 ],
					"id" : "obj-24",
					"fontsize" : 9.0,
					"numinlets" : 1,
					"numoutlets" : 0
				}

			}
, 			{
				"box" : 				{
					"maxclass" : "comment",
					"text" : "Wave signal:",
					"fontname" : "Arial",
					"patching_rect" : [ 15.0, 435.0, 65.0, 17.0 ],
					"id" : "obj-25",
					"fontsize" : 9.0,
					"numinlets" : 1,
					"numoutlets" : 0
				}

			}
, 			{
				"box" : 				{
					"maxclass" : "meter~",
					"outlettype" : [ "float" ],
					"patching_rect" : [ 120.0, 450.0, 189.0, 12.0 ],
					"id" : "obj-231",
					"numinlets" : 1,
					"numoutlets" : 1
				}

			}
, 			{
				"box" : 				{
					"maxclass" : "message",
					"text" : "500",
					"outlettype" : [ "" ],
					"fontname" : "Arial",
					"patching_rect" : [ 75.0, 300.0, 32.5, 18.0 ],
					"hidden" : 1,
					"id" : "obj-22",
					"fontsize" : 12.0,
					"numinlets" : 2,
					"numoutlets" : 1
				}

			}
, 			{
				"box" : 				{
					"maxclass" : "newobj",
					"text" : "loadbang",
					"outlettype" : [ "bang" ],
					"fontname" : "Arial",
					"patching_rect" : [ 15.0, 315.0, 60.0, 20.0 ],
					"hidden" : 1,
					"id" : "obj-2",
					"fontsize" : 12.0,
					"numinlets" : 1,
					"numoutlets" : 1
				}

			}
, 			{
				"box" : 				{
					"maxclass" : "number",
					"outlettype" : [ "int", "bang" ],
					"minimum" : 10,
					"fontname" : "Arial",
					"patching_rect" : [ 120.0, 255.0, 59.0, 20.0 ],
					"maximum" : 10000,
					"id" : "obj-16",
					"fontsize" : 12.0,
					"numinlets" : 1,
					"numoutlets" : 2
				}

			}
, 			{
				"box" : 				{
					"maxclass" : "multislider",
					"outlettype" : [ "", "" ],
					"patching_rect" : [ 180.0, 255.0, 130.0, 19.0 ],
					"contdata" : 1,
					"id" : "obj-15",
					"orientation" : 0,
					"slidercolor" : [ 1.0, 0.003922, 0.003922, 1.0 ],
					"numinlets" : 1,
					"setminmax" : [ 10.0, 10000.0 ],
					"numoutlets" : 2
				}

			}
, 			{
				"box" : 				{
					"maxclass" : "comment",
					"text" : "Envelope:",
					"fontname" : "Arial",
					"patching_rect" : [ 15.0, 285.0, 64.0, 20.0 ],
					"id" : "obj-1",
					"fontsize" : 12.0,
					"numinlets" : 1,
					"numoutlets" : 0
				}

			}
, 			{
				"box" : 				{
					"maxclass" : "message",
					"text" : "clear",
					"outlettype" : [ "" ],
					"fontname" : "Arial",
					"patching_rect" : [ 75.0, 330.0, 33.0, 15.0 ],
					"id" : "obj-3",
					"fontsize" : 9.0,
					"numinlets" : 2,
					"numoutlets" : 1
				}

			}
, 			{
				"box" : 				{
					"maxclass" : "message",
					"text" : "setdomain $1",
					"outlettype" : [ "" ],
					"fontname" : "Arial",
					"patching_rect" : [ 15.0, 390.0, 68.0, 15.0 ],
					"hidden" : 1,
					"id" : "obj-20",
					"fontsize" : 9.0,
					"numinlets" : 2,
					"numoutlets" : 1
				}

			}
, 			{
				"box" : 				{
					"maxclass" : "function",
					"varname" : "amp",
					"bgcolor" : [ 1.0, 1.0, 1.0, 1.0 ],
					"pointcolor" : [ 1.0, 0.0, 0.0, 1.0 ],
					"outlettype" : [ "float", "", "", "bang" ],
					"linecolor" : [ 0.333333, 0.333333, 0.333333, 1.0 ],
					"patching_rect" : [ 120.0, 285.0, 189.0, 68.0 ],
					"id" : "obj-21",
					"domain" : 500.0,
					"numinlets" : 1,
					"numoutlets" : 4
				}

			}
, 			{
				"box" : 				{
					"maxclass" : "comment",
					"text" : "Duration (ms):",
					"fontname" : "Arial",
					"patching_rect" : [ 15.0, 255.0, 85.0, 20.0 ],
					"id" : "obj-4",
					"fontsize" : 12.0,
					"numinlets" : 1,
					"numoutlets" : 0
				}

			}
, 			{
				"box" : 				{
					"maxclass" : "comment",
					"text" : "Loop:",
					"fontname" : "Arial",
					"patching_rect" : [ 240.0, 15.0, 40.0, 20.0 ],
					"id" : "obj-9",
					"fontsize" : 12.0,
					"numinlets" : 1,
					"numoutlets" : 0
				}

			}
, 			{
				"box" : 				{
					"maxclass" : "toggle",
					"outlettype" : [ "int" ],
					"patching_rect" : [ 285.0, 15.0, 20.0, 20.0 ],
					"id" : "obj-7",
					"numinlets" : 1,
					"numoutlets" : 1
				}

			}
, 			{
				"box" : 				{
					"maxclass" : "button",
					"outlettype" : [ "bang" ],
					"patching_rect" : [ 90.0, 450.0, 20.0, 20.0 ],
					"hidden" : 1,
					"id" : "obj-6",
					"numinlets" : 1,
					"numoutlets" : 1
				}

			}
, 			{
				"box" : 				{
					"maxclass" : "button",
					"outlettype" : [ "bang" ],
					"patching_rect" : [ 210.0, 15.0, 20.0, 20.0 ],
					"id" : "obj-5",
					"numinlets" : 1,
					"numoutlets" : 1
				}

			}
, 			{
				"box" : 				{
					"maxclass" : "comment",
					"text" : "Test:",
					"fontname" : "Arial",
					"patching_rect" : [ 165.0, 15.0, 36.0, 20.0 ],
					"id" : "obj-8",
					"fontsize" : 12.0,
					"numinlets" : 1,
					"numoutlets" : 0
				}

			}
, 			{
				"box" : 				{
					"maxclass" : "newobj",
					"text" : "gate",
					"outlettype" : [ "" ],
					"fontname" : "Arial",
					"patching_rect" : [ 135.0, 15.0, 29.0, 17.0 ],
					"hidden" : 1,
					"id" : "obj-10",
					"fontsize" : 9.0,
					"numinlets" : 2,
					"numoutlets" : 1
				}

			}
, 			{
				"box" : 				{
					"maxclass" : "newobj",
					"text" : "line~",
					"outlettype" : [ "signal", "bang" ],
					"fontname" : "Arial",
					"patching_rect" : [ 52.0, 515.0, 36.0, 20.0 ],
					"hidden" : 1,
					"id" : "obj-14",
					"fontsize" : 12.0,
					"numinlets" : 2,
					"numoutlets" : 2
				}

			}
, 			{
				"box" : 				{
					"maxclass" : "newobj",
					"text" : "*~ 1.",
					"outlettype" : [ "signal" ],
					"fontname" : "Arial",
					"patching_rect" : [ 7.0, 515.0, 36.0, 20.0 ],
					"hidden" : 1,
					"id" : "obj-76",
					"fontsize" : 12.0,
					"numinlets" : 2,
					"numoutlets" : 1
				}

			}
, 			{
				"box" : 				{
					"maxclass" : "message",
					"text" : "0",
					"outlettype" : [ "" ],
					"fontname" : "Arial",
					"patching_rect" : [ 64.0, 405.0, 32.5, 18.0 ],
					"hidden" : 1,
					"id" : "obj-11",
					"fontsize" : 12.0,
					"numinlets" : 2,
					"numoutlets" : 1
				}

			}
, 			{
				"box" : 				{
					"maxclass" : "message",
					"text" : "20",
					"outlettype" : [ "" ],
					"fontname" : "Arial",
					"patching_rect" : [ 30.0, 405.0, 32.5, 18.0 ],
					"hidden" : 1,
					"id" : "obj-12",
					"fontsize" : 12.0,
					"numinlets" : 2,
					"numoutlets" : 1
				}

			}
, 			{
				"box" : 				{
					"maxclass" : "meter~",
					"outlettype" : [ "float" ],
					"patching_rect" : [ 120.0, 435.0, 189.0, 12.0 ],
					"id" : "obj-229",
					"numinlets" : 1,
					"numoutlets" : 1
				}

			}
, 			{
				"box" : 				{
					"maxclass" : "comment",
					"text" : "Volume:",
					"fontname" : "Arial",
					"patching_rect" : [ 15.0, 360.0, 88.0, 20.0 ],
					"id" : "obj-228",
					"fontsize" : 12.0,
					"numinlets" : 1,
					"numoutlets" : 0
				}

			}
, 			{
				"box" : 				{
					"maxclass" : "comment",
					"text" : "Phase freq:",
					"fontname" : "Arial",
					"patching_rect" : [ 15.0, 225.0, 88.0, 20.0 ],
					"id" : "obj-216",
					"fontsize" : 12.0,
					"numinlets" : 1,
					"numoutlets" : 0
				}

			}
, 			{
				"box" : 				{
					"maxclass" : "comment",
					"text" : "Cycle 2 amp:",
					"fontname" : "Arial",
					"patching_rect" : [ 15.0, 195.0, 88.0, 20.0 ],
					"id" : "obj-217",
					"fontsize" : 12.0,
					"numinlets" : 1,
					"numoutlets" : 0
				}

			}
, 			{
				"box" : 				{
					"maxclass" : "comment",
					"text" : "Cycle 2 gain:",
					"fontname" : "Arial",
					"patching_rect" : [ 15.0, 165.0, 88.0, 20.0 ],
					"id" : "obj-218",
					"fontsize" : 12.0,
					"numinlets" : 1,
					"numoutlets" : 0
				}

			}
, 			{
				"box" : 				{
					"maxclass" : "comment",
					"text" : "Cycle 2 freq:",
					"fontname" : "Arial",
					"patching_rect" : [ 15.0, 135.0, 88.0, 20.0 ],
					"id" : "obj-219",
					"fontsize" : 12.0,
					"numinlets" : 1,
					"numoutlets" : 0
				}

			}
, 			{
				"box" : 				{
					"maxclass" : "number",
					"outlettype" : [ "int", "bang" ],
					"minimum" : 20,
					"fontname" : "Arial",
					"patching_rect" : [ 118.0, 133.0, 59.0, 20.0 ],
					"maximum" : 20000,
					"id" : "obj-220",
					"fontsize" : 12.0,
					"numinlets" : 1,
					"numoutlets" : 2
				}

			}
, 			{
				"box" : 				{
					"maxclass" : "multislider",
					"outlettype" : [ "", "" ],
					"patching_rect" : [ 178.0, 223.0, 130.0, 19.0 ],
					"contdata" : 1,
					"id" : "obj-221",
					"orientation" : 0,
					"slidercolor" : [ 1.0, 0.0, 0.0, 1.0 ],
					"numinlets" : 1,
					"setminmax" : [ 0.0, 4000.0 ],
					"numoutlets" : 2
				}

			}
, 			{
				"box" : 				{
					"maxclass" : "number",
					"outlettype" : [ "int", "bang" ],
					"minimum" : 0,
					"fontname" : "Arial",
					"patching_rect" : [ 118.0, 223.0, 59.0, 20.0 ],
					"maximum" : 4000,
					"id" : "obj-222",
					"fontsize" : 12.0,
					"numinlets" : 1,
					"numoutlets" : 2
				}

			}
, 			{
				"box" : 				{
					"maxclass" : "multislider",
					"outlettype" : [ "", "" ],
					"patching_rect" : [ 178.0, 193.0, 130.0, 19.0 ],
					"contdata" : 1,
					"id" : "obj-223",
					"orientation" : 0,
					"slidercolor" : [ 1.0, 0.0, 0.0, 1.0 ],
					"numinlets" : 1,
					"setminmax" : [ 0.0, 12000.0 ],
					"numoutlets" : 2
				}

			}
, 			{
				"box" : 				{
					"maxclass" : "number",
					"outlettype" : [ "int", "bang" ],
					"minimum" : 0,
					"fontname" : "Arial",
					"patching_rect" : [ 118.0, 193.0, 59.0, 20.0 ],
					"maximum" : 12000,
					"id" : "obj-224",
					"fontsize" : 12.0,
					"numinlets" : 1,
					"numoutlets" : 2
				}

			}
, 			{
				"box" : 				{
					"maxclass" : "multislider",
					"outlettype" : [ "", "" ],
					"patching_rect" : [ 178.0, 163.0, 130.0, 19.0 ],
					"contdata" : 1,
					"id" : "obj-225",
					"orientation" : 0,
					"slidercolor" : [ 1.0, 0.0, 0.0, 1.0 ],
					"numinlets" : 1,
					"setminmax" : [ 0.0, 12000.0 ],
					"numoutlets" : 2
				}

			}
, 			{
				"box" : 				{
					"maxclass" : "number",
					"outlettype" : [ "int", "bang" ],
					"minimum" : 0,
					"fontname" : "Arial",
					"patching_rect" : [ 118.0, 163.0, 59.0, 20.0 ],
					"maximum" : 12000,
					"id" : "obj-226",
					"fontsize" : 12.0,
					"numinlets" : 1,
					"numoutlets" : 2
				}

			}
, 			{
				"box" : 				{
					"maxclass" : "multislider",
					"outlettype" : [ "", "" ],
					"patching_rect" : [ 178.0, 133.0, 130.0, 19.0 ],
					"contdata" : 1,
					"id" : "obj-227",
					"orientation" : 0,
					"slidercolor" : [ 1.0, 0.0, 0.0, 1.0 ],
					"numinlets" : 1,
					"setminmax" : [ 20.0, 20000.0 ],
					"numoutlets" : 2
				}

			}
, 			{
				"box" : 				{
					"maxclass" : "comment",
					"text" : "Cycle 1 amp:",
					"fontname" : "Arial",
					"patching_rect" : [ 15.0, 105.0, 88.0, 20.0 ],
					"id" : "obj-214",
					"fontsize" : 12.0,
					"numinlets" : 1,
					"numoutlets" : 0
				}

			}
, 			{
				"box" : 				{
					"maxclass" : "comment",
					"text" : "Cycle 1 gain:",
					"fontname" : "Arial",
					"patching_rect" : [ 15.0, 75.0, 88.0, 20.0 ],
					"id" : "obj-213",
					"fontsize" : 12.0,
					"numinlets" : 1,
					"numoutlets" : 0
				}

			}
, 			{
				"box" : 				{
					"maxclass" : "outlet",
					"patching_rect" : [ 92.0, 513.0, 25.0, 25.0 ],
					"hidden" : 1,
					"id" : "obj-194",
					"numinlets" : 1,
					"numoutlets" : 0,
					"comment" : "sig out"
				}

			}
, 			{
				"box" : 				{
					"maxclass" : "comment",
					"text" : "TRIANGLE",
					"fontname" : "Arial Bold",
					"patching_rect" : [ 15.0, 15.0, 74.0, 20.0 ],
					"id" : "obj-195",
					"fontsize" : 12.0,
					"numinlets" : 1,
					"numoutlets" : 0
				}

			}
, 			{
				"box" : 				{
					"maxclass" : "comment",
					"text" : "Cycle 1 freq:",
					"fontname" : "Arial",
					"patching_rect" : [ 15.0, 45.0, 88.0, 20.0 ],
					"id" : "obj-200",
					"fontsize" : 12.0,
					"numinlets" : 1,
					"numoutlets" : 0
				}

			}
, 			{
				"box" : 				{
					"maxclass" : "number",
					"outlettype" : [ "int", "bang" ],
					"minimum" : 20,
					"fontname" : "Arial",
					"patching_rect" : [ 118.0, 43.0, 59.0, 20.0 ],
					"maximum" : 20000,
					"id" : "obj-201",
					"fontsize" : 12.0,
					"numinlets" : 1,
					"numoutlets" : 2
				}

			}
, 			{
				"box" : 				{
					"maxclass" : "multislider",
					"outlettype" : [ "", "" ],
					"patching_rect" : [ 178.0, 103.0, 130.0, 19.0 ],
					"contdata" : 1,
					"id" : "obj-204",
					"orientation" : 0,
					"slidercolor" : [ 1.0, 0.0, 0.0, 1.0 ],
					"numinlets" : 1,
					"setminmax" : [ 0.0, 12000.0 ],
					"numoutlets" : 2
				}

			}
, 			{
				"box" : 				{
					"maxclass" : "number",
					"outlettype" : [ "int", "bang" ],
					"minimum" : 0,
					"fontname" : "Arial",
					"patching_rect" : [ 118.0, 103.0, 59.0, 20.0 ],
					"maximum" : 12000,
					"id" : "obj-205",
					"fontsize" : 12.0,
					"numinlets" : 1,
					"numoutlets" : 2
				}

			}
, 			{
				"box" : 				{
					"maxclass" : "multislider",
					"outlettype" : [ "", "" ],
					"patching_rect" : [ 178.0, 73.0, 130.0, 19.0 ],
					"contdata" : 1,
					"id" : "obj-206",
					"orientation" : 0,
					"slidercolor" : [ 1.0, 0.0, 0.0, 1.0 ],
					"numinlets" : 1,
					"setminmax" : [ 0.0, 12000.0 ],
					"numoutlets" : 2
				}

			}
, 			{
				"box" : 				{
					"maxclass" : "number",
					"outlettype" : [ "int", "bang" ],
					"minimum" : 0,
					"fontname" : "Arial",
					"patching_rect" : [ 118.0, 73.0, 59.0, 20.0 ],
					"maximum" : 12,
					"id" : "obj-207",
					"fontsize" : 12.0,
					"numinlets" : 1,
					"numoutlets" : 2
				}

			}
, 			{
				"box" : 				{
					"maxclass" : "gain~",
					"outlettype" : [ "signal", "int" ],
					"patching_rect" : [ 120.0, 360.0, 25.0, 63.0 ],
					"id" : "obj-208",
					"numinlets" : 2,
					"numoutlets" : 2
				}

			}
, 			{
				"box" : 				{
					"maxclass" : "scope~",
					"bgcolor" : [ 0.529412, 0.529412, 0.529412, 1.0 ],
					"patching_rect" : [ 150.0, 360.0, 159.0, 63.0 ],
					"calccount" : 20,
					"rounded" : 0,
					"id" : "obj-209",
					"trigger" : 1,
					"bufsize" : 20,
					"numinlets" : 2,
					"numoutlets" : 0
				}

			}
, 			{
				"box" : 				{
					"maxclass" : "multislider",
					"outlettype" : [ "", "" ],
					"patching_rect" : [ 178.0, 43.0, 130.0, 19.0 ],
					"contdata" : 1,
					"id" : "obj-210",
					"orientation" : 0,
					"slidercolor" : [ 1.0, 0.0, 0.0, 1.0 ],
					"numinlets" : 1,
					"setminmax" : [ 20.0, 20000.0 ],
					"numoutlets" : 2
				}

			}
, 			{
				"box" : 				{
					"maxclass" : "newobj",
					"text" : "phatri",
					"outlettype" : [ "signal" ],
					"fontname" : "Arial",
					"patching_rect" : [ 116.0, 473.0, 140.5, 20.0 ],
					"hidden" : 1,
					"id" : "obj-126",
					"fontsize" : 12.0,
					"numinlets" : 10,
					"numoutlets" : 1
				}

			}
 ],
		"lines" : [ 			{
				"patchline" : 				{
					"source" : [ "obj-13", 0 ],
					"destination" : [ "obj-5", 0 ],
					"hidden" : 1,
					"midpoints" : [  ]
				}

			}
, 			{
				"patchline" : 				{
					"source" : [ "obj-11", 0 ],
					"destination" : [ "obj-222", 0 ],
					"hidden" : 1,
					"midpoints" : [  ]
				}

			}
, 			{
				"patchline" : 				{
					"source" : [ "obj-11", 0 ],
					"destination" : [ "obj-224", 0 ],
					"hidden" : 1,
					"midpoints" : [  ]
				}

			}
, 			{
				"patchline" : 				{
					"source" : [ "obj-11", 0 ],
					"destination" : [ "obj-226", 0 ],
					"hidden" : 1,
					"midpoints" : [  ]
				}

			}
, 			{
				"patchline" : 				{
					"source" : [ "obj-11", 0 ],
					"destination" : [ "obj-205", 0 ],
					"hidden" : 1,
					"midpoints" : [  ]
				}

			}
, 			{
				"patchline" : 				{
					"source" : [ "obj-11", 0 ],
					"destination" : [ "obj-207", 0 ],
					"hidden" : 1,
					"midpoints" : [  ]
				}

			}
, 			{
				"patchline" : 				{
					"source" : [ "obj-12", 0 ],
					"destination" : [ "obj-220", 0 ],
					"hidden" : 1,
					"midpoints" : [  ]
				}

			}
, 			{
				"patchline" : 				{
					"source" : [ "obj-12", 0 ],
					"destination" : [ "obj-201", 0 ],
					"hidden" : 1,
					"midpoints" : [  ]
				}

			}
, 			{
				"patchline" : 				{
					"source" : [ "obj-210", 0 ],
					"destination" : [ "obj-201", 0 ],
					"hidden" : 1,
					"midpoints" : [  ]
				}

			}
, 			{
				"patchline" : 				{
					"source" : [ "obj-204", 0 ],
					"destination" : [ "obj-205", 0 ],
					"hidden" : 1,
					"midpoints" : [  ]
				}

			}
, 			{
				"patchline" : 				{
					"source" : [ "obj-206", 0 ],
					"destination" : [ "obj-207", 0 ],
					"hidden" : 1,
					"midpoints" : [  ]
				}

			}
, 			{
				"patchline" : 				{
					"source" : [ "obj-201", 0 ],
					"destination" : [ "obj-126", 1 ],
					"hidden" : 1,
					"midpoints" : [  ]
				}

			}
, 			{
				"patchline" : 				{
					"source" : [ "obj-207", 0 ],
					"destination" : [ "obj-126", 2 ],
					"hidden" : 1,
					"midpoints" : [  ]
				}

			}
, 			{
				"patchline" : 				{
					"source" : [ "obj-205", 0 ],
					"destination" : [ "obj-126", 0 ],
					"hidden" : 1,
					"midpoints" : [  ]
				}

			}
, 			{
				"patchline" : 				{
					"source" : [ "obj-225", 0 ],
					"destination" : [ "obj-226", 0 ],
					"hidden" : 1,
					"midpoints" : [  ]
				}

			}
, 			{
				"patchline" : 				{
					"source" : [ "obj-223", 0 ],
					"destination" : [ "obj-224", 0 ],
					"hidden" : 1,
					"midpoints" : [  ]
				}

			}
, 			{
				"patchline" : 				{
					"source" : [ "obj-221", 0 ],
					"destination" : [ "obj-222", 0 ],
					"hidden" : 1,
					"midpoints" : [  ]
				}

			}
, 			{
				"patchline" : 				{
					"source" : [ "obj-227", 0 ],
					"destination" : [ "obj-220", 0 ],
					"hidden" : 1,
					"midpoints" : [  ]
				}

			}
, 			{
				"patchline" : 				{
					"source" : [ "obj-220", 0 ],
					"destination" : [ "obj-126", 4 ],
					"hidden" : 1,
					"midpoints" : [  ]
				}

			}
, 			{
				"patchline" : 				{
					"source" : [ "obj-224", 0 ],
					"destination" : [ "obj-126", 5 ],
					"hidden" : 1,
					"midpoints" : [  ]
				}

			}
, 			{
				"patchline" : 				{
					"source" : [ "obj-226", 0 ],
					"destination" : [ "obj-126", 7 ],
					"hidden" : 1,
					"midpoints" : [  ]
				}

			}
, 			{
				"patchline" : 				{
					"source" : [ "obj-222", 0 ],
					"destination" : [ "obj-126", 8 ],
					"hidden" : 1,
					"midpoints" : [  ]
				}

			}
, 			{
				"patchline" : 				{
					"source" : [ "obj-126", 0 ],
					"destination" : [ "obj-208", 0 ],
					"hidden" : 1,
					"midpoints" : [  ]
				}

			}
, 			{
				"patchline" : 				{
					"source" : [ "obj-126", 0 ],
					"destination" : [ "obj-209", 0 ],
					"hidden" : 1,
					"midpoints" : [  ]
				}

			}
, 			{
				"patchline" : 				{
					"source" : [ "obj-208", 0 ],
					"destination" : [ "obj-229", 0 ],
					"hidden" : 1,
					"midpoints" : [  ]
				}

			}
, 			{
				"patchline" : 				{
					"source" : [ "obj-76", 0 ],
					"destination" : [ "obj-231", 0 ],
					"hidden" : 1,
					"midpoints" : [  ]
				}

			}
, 			{
				"patchline" : 				{
					"source" : [ "obj-2", 0 ],
					"destination" : [ "obj-3", 0 ],
					"hidden" : 1,
					"midpoints" : [  ]
				}

			}
, 			{
				"patchline" : 				{
					"source" : [ "obj-2", 0 ],
					"destination" : [ "obj-22", 0 ],
					"hidden" : 1,
					"midpoints" : [  ]
				}

			}
, 			{
				"patchline" : 				{
					"source" : [ "obj-22", 0 ],
					"destination" : [ "obj-16", 0 ],
					"hidden" : 1,
					"midpoints" : [  ]
				}

			}
, 			{
				"patchline" : 				{
					"source" : [ "obj-15", 0 ],
					"destination" : [ "obj-16", 0 ],
					"hidden" : 1,
					"midpoints" : [  ]
				}

			}
, 			{
				"patchline" : 				{
					"source" : [ "obj-16", 0 ],
					"destination" : [ "obj-20", 0 ],
					"hidden" : 1,
					"midpoints" : [  ]
				}

			}
, 			{
				"patchline" : 				{
					"source" : [ "obj-10", 0 ],
					"destination" : [ "obj-5", 0 ],
					"hidden" : 1,
					"midpoints" : [  ]
				}

			}
, 			{
				"patchline" : 				{
					"source" : [ "obj-6", 0 ],
					"destination" : [ "obj-10", 1 ],
					"hidden" : 1,
					"midpoints" : [  ]
				}

			}
, 			{
				"patchline" : 				{
					"source" : [ "obj-7", 0 ],
					"destination" : [ "obj-10", 0 ],
					"hidden" : 1,
					"midpoints" : [  ]
				}

			}
, 			{
				"patchline" : 				{
					"source" : [ "obj-5", 0 ],
					"destination" : [ "obj-21", 0 ],
					"hidden" : 1,
					"midpoints" : [  ]
				}

			}
, 			{
				"patchline" : 				{
					"source" : [ "obj-3", 0 ],
					"destination" : [ "obj-21", 0 ],
					"hidden" : 1,
					"midpoints" : [  ]
				}

			}
, 			{
				"patchline" : 				{
					"source" : [ "obj-20", 0 ],
					"destination" : [ "obj-21", 0 ],
					"hidden" : 1,
					"midpoints" : [  ]
				}

			}
, 			{
				"patchline" : 				{
					"source" : [ "obj-21", 1 ],
					"destination" : [ "obj-14", 0 ],
					"hidden" : 1,
					"midpoints" : [  ]
				}

			}
, 			{
				"patchline" : 				{
					"source" : [ "obj-14", 1 ],
					"destination" : [ "obj-6", 0 ],
					"hidden" : 1,
					"midpoints" : [  ]
				}

			}
, 			{
				"patchline" : 				{
					"source" : [ "obj-14", 0 ],
					"destination" : [ "obj-76", 1 ],
					"hidden" : 1,
					"midpoints" : [  ]
				}

			}
, 			{
				"patchline" : 				{
					"source" : [ "obj-208", 0 ],
					"destination" : [ "obj-76", 0 ],
					"hidden" : 1,
					"midpoints" : [  ]
				}

			}
, 			{
				"patchline" : 				{
					"source" : [ "obj-2", 0 ],
					"destination" : [ "obj-12", 0 ],
					"hidden" : 1,
					"midpoints" : [  ]
				}

			}
, 			{
				"patchline" : 				{
					"source" : [ "obj-2", 0 ],
					"destination" : [ "obj-11", 0 ],
					"hidden" : 1,
					"midpoints" : [  ]
				}

			}
, 			{
				"patchline" : 				{
					"source" : [ "obj-76", 0 ],
					"destination" : [ "obj-194", 0 ],
					"hidden" : 1,
					"midpoints" : [  ]
				}

			}
, 			{
				"patchline" : 				{
					"source" : [ "obj-27", 0 ],
					"destination" : [ "obj-201", 0 ],
					"hidden" : 1,
					"midpoints" : [  ]
				}

			}
, 			{
				"patchline" : 				{
					"source" : [ "obj-27", 0 ],
					"destination" : [ "obj-210", 0 ],
					"hidden" : 1,
					"midpoints" : [  ]
				}

			}
, 			{
				"patchline" : 				{
					"source" : [ "obj-27", 0 ],
					"destination" : [ "obj-207", 0 ],
					"hidden" : 1,
					"midpoints" : [  ]
				}

			}
, 			{
				"patchline" : 				{
					"source" : [ "obj-27", 0 ],
					"destination" : [ "obj-206", 0 ],
					"hidden" : 1,
					"midpoints" : [  ]
				}

			}
, 			{
				"patchline" : 				{
					"source" : [ "obj-27", 0 ],
					"destination" : [ "obj-205", 0 ],
					"hidden" : 1,
					"midpoints" : [  ]
				}

			}
, 			{
				"patchline" : 				{
					"source" : [ "obj-27", 0 ],
					"destination" : [ "obj-204", 0 ],
					"hidden" : 1,
					"midpoints" : [  ]
				}

			}
, 			{
				"patchline" : 				{
					"source" : [ "obj-27", 0 ],
					"destination" : [ "obj-220", 0 ],
					"hidden" : 1,
					"midpoints" : [  ]
				}

			}
, 			{
				"patchline" : 				{
					"source" : [ "obj-27", 0 ],
					"destination" : [ "obj-227", 0 ],
					"hidden" : 1,
					"midpoints" : [  ]
				}

			}
, 			{
				"patchline" : 				{
					"source" : [ "obj-27", 0 ],
					"destination" : [ "obj-226", 0 ],
					"hidden" : 1,
					"midpoints" : [  ]
				}

			}
, 			{
				"patchline" : 				{
					"source" : [ "obj-27", 0 ],
					"destination" : [ "obj-225", 0 ],
					"hidden" : 1,
					"midpoints" : [  ]
				}

			}
, 			{
				"patchline" : 				{
					"source" : [ "obj-27", 0 ],
					"destination" : [ "obj-224", 0 ],
					"hidden" : 1,
					"midpoints" : [  ]
				}

			}
, 			{
				"patchline" : 				{
					"source" : [ "obj-27", 0 ],
					"destination" : [ "obj-223", 0 ],
					"hidden" : 1,
					"midpoints" : [  ]
				}

			}
, 			{
				"patchline" : 				{
					"source" : [ "obj-27", 0 ],
					"destination" : [ "obj-222", 0 ],
					"hidden" : 1,
					"midpoints" : [  ]
				}

			}
, 			{
				"patchline" : 				{
					"source" : [ "obj-27", 0 ],
					"destination" : [ "obj-221", 0 ],
					"hidden" : 1,
					"midpoints" : [  ]
				}

			}
, 			{
				"patchline" : 				{
					"source" : [ "obj-27", 0 ],
					"destination" : [ "obj-16", 0 ],
					"hidden" : 1,
					"midpoints" : [  ]
				}

			}
, 			{
				"patchline" : 				{
					"source" : [ "obj-27", 0 ],
					"destination" : [ "obj-15", 0 ],
					"hidden" : 1,
					"midpoints" : [  ]
				}

			}
, 			{
				"patchline" : 				{
					"source" : [ "obj-27", 0 ],
					"destination" : [ "obj-21", 0 ],
					"hidden" : 1,
					"midpoints" : [  ]
				}

			}
, 			{
				"patchline" : 				{
					"source" : [ "obj-27", 0 ],
					"destination" : [ "obj-208", 1 ],
					"hidden" : 1,
					"midpoints" : [  ]
				}

			}
 ]
	}

}
